# AST/ASF file generated using VICON BodyLanguage
# -----------------------------------------------
:version 1.10
:name VICON
:units
  mass 1.0
  length 0.45
  angle deg
:documentation
   .ast/.asf automatically generated from VICON data using
   VICON BodyBuilder and BodyLanguage model FoxedUp or BRILLIANT.MOD
:root
   order TX TY TZ RX RY RZ
   axis XYZ
   position 0 0 0  
   orientation 0 0 0 
:bonedata
  begin
     id 1 
     name lhipjoint
     direction 0.596438 -0.722117 0.35044 
     length 2.43043 
     axis 0 0 0  XYZ
  end
  begin
     id 2 
     name lfemur
     direction 0.34202 -0.939693 0  
     length 7.0339  
     axis 0 0 20  XYZ
    dof rx ry rz
    limits (-160.0 20.0)
           (-70.0 70.0)
           (-60.0 70.0)
  end
  begin
     id 3 
     name ltibia
     direction 0.34202 -0.939693 0   
     length 7.56602   
     axis 0 0 20   XYZ
    dof rx
    limits (-10.0 170.0)
  end
  begin
     id 4 
     name lfoot
     direction 0.0985677 -0.270812 0.957572   
     length 1.85172   
     axis -90 7.62852e-016 20   XYZ
    dof rx rz
    limits (-45.0 90.0)
           (-70.0 20.0)
  end
  begin
     id 5 
     name ltoes
     direction 1.53534e-011 -4.21843e-011 1   
     length 0.929904   
     axis -90 7.62852e-016 20   XYZ
    dof rx
    limits (-90.0 20.0)
  end
  begin
     id 6 
     name rhipjoint
     direction -0.585088 -0.729594 0.354068   
     length 2.40552  
     axis 0 0 0  XYZ 
  end
  begin
     id 7 
     name rfemur
     direction -0.34202 -0.939693 0   
     length 7.12573   
     axis 0 0 -20   XYZ
    dof rx ry rz
    limits (-160.0 20.0)
           (-70.0 70.0)
           (-70.0 60.0)
  end
  begin
     id 8 
     name rtibia
     direction -0.34202 -0.939693 0   
     length 7.35777   
     axis 0 0 -20   XYZ
    dof rx
    limits (-10.0 170.0)
 end
 begin
     id 9 
     name rfoot
     direction -0.120907 -0.33219 0.935431   
     length 2.0994  
     axis -90 -7.62852e-016 -20   XYZ
    dof rx rz
    limits (-45.0 90.0)
           (-20.0 70.0)
  end
  begin
     id 10 
     name rtoes
     direction -1.53577e-011 -4.21787e-011 1   
     length 1.04244   
     axis -90 -7.62852e-016 -20   XYZ
    dof rx
    limits (-90.0 20.0)
  end
  begin
     id 11 
     name lowerback
     direction 0.00268363 0.993603 -0.112896   
     length 2.15839   
     axis 0 0 0   XYZ
    dof rx ry rz
    limits (-20.0 45.0)
           (-30.0 30.0)
           (-30.0 30.0)
  end
  begin
     id 12 
     name upperback
     direction 0.0272563 0.999411 -0.0208618   
     length 2.16443   
     axis 0 0 0   XYZ
    dof rx ry rz
    limits (-20.0 45.0)
           (-30.0 30.0)
           (-30.0 30.0)
  end
  begin
     id 13 
     name thorax
     direction 0.0254655 0.999174 0.0316806   
     length 2.19003   
     axis 0 0 0   XYZ
    dof rx ry rz
    limits (-20.0 45.0)
           (-30.0 30.0)
           (-30.0 30.0)
  end
  begin
     id 14 
     name lowerneck
     direction -0.0102178 0.988048 0.15381   
     length 1.61507   
     axis 0 0 0   XYZ
    dof rx ry rz
    limits (-20.0 45.0)
           (-30.0 30.0)
           (-30.0 30.0)
  end
  begin
     id 15 
     name upperneck
     direction -0.0061965 0.994088 -0.108398   
     length 1.64042   
     axis 0 0 0   XYZ
    dof rx ry rz
    limits (-20.0 45.0)
           (-30.0 30.0)
           (-30.0 30.0)
  end
  begin
     id 16
     name head
     direction -0.00151929 0.998591 -0.0530385  
     length 1.64343  
     axis 0 0 0   XYZ
    dof rx ry rz
    limits (-20.0 45.0)
           (-30.0 30.0)
           (-30.0 30.0)
  end
  begin
     id 17 
     name lclavicle
     direction 0.948974 0.284245 -0.136574  
     length 3.3483  
     axis 0 0 0   XYZ
    dof ry rz
    limits (-20.0 10.0)
           (0.0 20.0)
  end
  begin
     id 18 
     name lhumerus
     direction 1 -4.48961e-011 1.68576e-027   
     length 4.93485   
     axis -180 -30 -90   XYZ
    dof rx ry rz
    limits (-60.0 90.0)
           (-90.0 90.0)
           (-90.0 90.0)
  end
  begin
     id 19
     name lradius
     direction 1 -4.48965e-011 -2.46405e-027   
     length 3.41719   
     axis -180 -30 -90   XYZ
    dof rx
    limits (-10.0 170.0)
  end
  begin
     id 20
     name lwrist
     direction 1 -4.48968e-011 -8.00486e-028   
     length 1.7086   
     axis 3.27501e-015 90 90   XYZ
    dof ry
    limits (-180.0 0.0)
 end
  begin
     id 21 
     name lhand
     direction 1 -4.48977e-011 -1.60161e-027   
     length 0.6241   
     axis 1.02148e-015 90 90   XYZ
    dof rx rz
    limits (-90.0 90.0)
           (-45.0 45.0)
  end
  begin
     id 22 
     name lfingers
     direction 1 -4.49049e-011 -3.21275e-027   
     length 0.503166   
     axis 2.04295e-015 90 90   XYZ
    dof rx
    limits (0.0 90.0)
  end
  begin
     id 23
     name lthumb
     direction 0.707107 -6.34975e-011 0.707107   
     length 0.722448   
     axis -90 45 -1.62303e-014   XYZ
    dof rx rz
    limits (-45.0 45.0)
           (-45.0 45.0)
  end
  begin
     id 24 
     name rclavicle
     direction -0.904485 0.355099 -0.236246   
     length 3.18329  
     axis 0 0 0   XYZ 
    dof ry rz
    limits (-10.0 20.0)
           (-20.0 0.0)
  end
  begin
     id 25 
     name rhumerus
     direction -1 -4.48953e-011 1.32816e-027  
     length 5.22034   
     axis -180 30 90   XYZ
    dof rx ry rz
    limits (-90.0 60.0)
           (-90.0 90.0)
           (-90.0 90.0)
  end
  begin
     id 26 
     name rradius
     direction -1 -4.48965e-011 -3.93727e-027   
     length 3.41809   
     axis -180 30 90   XYZ
    dof rx
    limits (-10.0 170.0)
  end
  begin
     id 27 
     name rwrist
     direction -1 -4.48962e-011 -8.003e-028   
     length 1.70904   
     axis 3.27501e-015 -90 -90   XYZ
    dof ry
    limits (-180.0 0.0)
  end
  begin
     id 28
     name rhand
     direction -1 -4.49008e-011 -1.60365e-027   
     length 0.77534   
     axis 1.02148e-015 -90 -90   XYZ
    dof rx rz
    limits (-90.0 90.0)
           (-45.0 45.0)
  end
  begin
     id 29
     name rfingers
     direction -1 -4.49001e-011 -3.2064e-027   
     length 0.625099   
     axis 2.04295e-015 -90 -90   XYZ
    dof rx
    limits (0.0 90.0)
  end
  begin
     id 30
     name rthumb
     direction -0.707107 -6.34989e-011 0.707107   
     length 0.897521   
     axis -90 -45 1.62303e-014   XYZ
    dof rx rz
    limits (-45.0 45.0)
           (-45.0 45.0)
  end
:hierarchy
  begin
    root lhipjoint rhipjoint lowerback
    lhipjoint lfemur
    lfemur ltibia
    ltibia lfoot
    lfoot ltoes
    rhipjoint rfemur
    rfemur rtibia
    rtibia rfoot
    rfoot rtoes
    lowerback upperback
    upperback thorax
    thorax lowerneck lclavicle rclavicle
    lowerneck upperneck
    upperneck head
    lclavicle lhumerus
    lhumerus lradius
    lradius lwrist
    lwrist lhand lthumb
    lhand lfingers
    rclavicle rhumerus
    rhumerus rradius
    rradius rwrist
    rwrist rhand rthumb
    rhand rfingers
  end

#!OML:ASF \\sashay\E\Suitcase\Project 1\Capture day 1\Session 1\Male1.ASF
:FULLY-SPECIFIED
:DEGREES
311
root 0.990611 17.6357 -36.8885 10.8688 3.53373 1.22273
lowerback 14.6918 0.0444466 8.57378
upperback 8.43767 1.30558 13.7658
thorax 0.729429 0.607798 9.9418
lowerneck -17.3277 -3.77528 -5.01017
upperneck -6.11322 -4.18271 -8.54041
head 0.862332 -2.25738 -2.1514
rclavicle 2.22639e-014 3.18055e-015
rhumerus -8.90411 -16.5706 -56.2059
rradius 21.0665
rwrist -5.87808
rhand -6.99 13.4713
rfingers 7.12502
rthumb 18.8804 -15.6324
lclavicle 2.22639e-014 3.18055e-015
lhumerus -35.8386 -7.907 99.945
lradius 51.4406
lwrist -0.0379196
lhand 0.1213 42.4266
lfingers 7.12502
lthumb 25.7066 70.7106
rfemur -23.3794 -1.60503 19.5357
rtibia 29.9592
rfoot -17.1156 -10.7966
rtoes 1.50428
lfemur -21.5739 -2.29843 -20.3276
ltibia 26.1228
lfoot -16.8192 1.1765
ltoes 3.85246
312
root 0.974613 17.6328 -36.8754 10.7001 3.25011 1.0087
lowerback 14.7965 0.17602 8.36551
upperback 8.47407 1.46332 13.7882
thorax 0.687402 0.67834 10.0652
lowerneck -17.192 -3.75455 -5.17149
upperneck -6.03326 -4.12863 -8.60567
head 0.868929 -2.22838 -2.13962
rclavicle -2.54444e-014 7.31528e-014
rhumerus -9.05809 -16.2738 -56.2133
rradius 21.0419
rwrist -6.38161
rhand -6.76545 14.0402
rfingers 7.12502
rthumb 19.0964 -15.0423
lclavicle -2.54444e-014 7.31528e-014
lhumerus -35.9851 -7.79129 99.9485
lradius 51.2839
lwrist -0.328819
lhand -0.155688 41.9609
lfingers 7.12502
lthumb 25.4412 70.283
rfemur -23.2131 -1.21139 19.7797
rtibia 29.9834
rfoot -17.1528 -10.8515
rtoes 1.12754
lfemur -21.3826 -2.11921 -20.0741
ltibia 26.199
lfoot -16.8821 1.38429
ltoes 3.56332
313
root 0.973728 17.629 -36.8638 10.5744 3.24891 1.02587
lowerback 14.6788 0.18601 8.23851
upperback 8.57626 1.4222 13.6935
thorax 0.86406 0.65617 10.0355
lowerneck -17.2409 -3.70991 -5.13692
upperneck -5.99914 -4.06689 -8.73707
head 0.887673 -2.20329 -2.18806
rclavicle -1.90833e-014 4.45278e-014
rhumerus -9.43791 -15.1344 -56.3508
rradius 21.848
rwrist -7.75429
rhand -6.97202 13.918
rfingers 7.12502
rthumb 18.8977 -15.184
lclavicle -1.90833e-014 4.45278e-014
lhumerus -35.7784 -7.88202 99.8227
lradius 51.1808
lwrist -0.0548417
lhand -0.0491787 42.4269
lfingers 7.12502
lthumb 25.5433 70.7344
rfemur -23.0524 -1.42787 19.7974
rtibia 30.0231
rfoot -17.1824 -10.6185
rtoes 0.618107
lfemur -21.2371 -2.15196 -20.1066
ltibia 26.2641
lfoot -16.9162 1.5478
ltoes 2.8026
314
root 0.966549 17.6265 -36.8609 10.683 3.47085 1.02661
lowerback 14.5288 0.157705 8.17427
upperback 8.40902 1.3794 13.565
thorax 0.763836 0.638523 9.92143
lowerneck -17.1 -3.65102 -5.01211
upperneck -5.84743 -4.00739 -8.85597
head 0.913555 -2.18071 -2.24469
rclavicle -5.725e-014 -5.725e-014
rhumerus -9.78362 -14.6117 -56.5065
rradius 21.716
rwrist -8.38293
rhand -6.77093 14.4217
rfingers 7.12502
rthumb 19.0911 -14.6614
lclavicle -5.725e-014 -5.725e-014
lhumerus -35.9553 -7.99203 99.6793
lradius 51.1136
lwrist -0.0033423
lhand -0.212496 42.4291
lfingers 7.12502
lthumb 25.3868 70.7589
rfemur -23.1508 -1.52509 19.8503
rtibia 30.0484
rfoot -17.224 -10.6981
rtoes 0.328613
lfemur -21.436 -2.49534 -20.0446
ltibia 26.3568
lfoot -16.848 1.83139
ltoes 1.70019
315
root 0.954761 17.6225 -36.8452 10.4946 3.18123 0.96268
lowerback 14.6141 0.23152 7.94087
upperback 8.47253 1.44832 13.489
thorax 0.772001 0.666073 9.95798
lowerneck -17.1112 -3.58392 -5.23291
upperneck -5.71335 -3.86081 -8.8812
head 0.966657 -2.10945 -2.20911
rclavicle 0 -1.49486e-013
rhumerus -9.9768 -13.4765 -56.7285
rradius 21.8637
rwrist -9.43353
rhand -7.21866 14.1426
rfingers 7.12502
rthumb 18.6605 -14.9823
lclavicle 0 -1.49486e-013
lhumerus -36.0446 -7.87844 99.5895
lradius 51.1275
lwrist -0.00896594
lhand -0.0301147 42.6817
lfingers 7.12502
lthumb 25.5615 70.9866
rfemur -22.9376 -1.40099 19.9375
rtibia 30.0927
rfoot -17.2709 -10.5111
rtoes 0.0266908
lfemur -21.1829 -2.31673 -19.9986
ltibia 26.441
lfoot -16.9315 2.13194
ltoes 0.584726
316
root 0.940087 17.6187 -36.836 10.413 3.12089 0.863624
lowerback 14.4865 0.313891 7.70485
upperback 8.50694 1.50276 13.5028
thorax 0.863333 0.685473 10.1037
lowerneck -17.0148 -3.55144 -5.41198
upperneck -5.66703 -3.78721 -9.01207
head 0.968041 -2.07159 -2.21572
rclavicle 5.08889e-014 8.90555e-014
rhumerus -9.95056 -12.6102 -56.8729
rradius 21.6455
rwrist -10.017
rhand -8.2087 14.3451
rfingers 7.12502
rthumb 17.708 -14.8685
lclavicle 5.08889e-014 8.90555e-014
lhumerus -35.8351 -8.06196 99.6585
lradius 50.7335
lwrist 0.239318
lhand -0.44209 42.7411
lfingers 7.12502
lthumb 25.1669 71.102
rfemur -22.8164 -0.990421 20.0505
rtibia 30.1202
rfoot -17.4059 -10.7909
rtoes -0.0414589
lfemur -21.1112 -2.23519 -19.8737
ltibia 26.5296
lfoot -16.975 2.30775
ltoes -0.619969
317
root 0.932073 17.6126 -36.8095 10.3227 2.76734 0.770437
lowerback 14.3311 0.472328 7.48731
upperback 8.58014 1.64456 13.4426
thorax 1.00198 0.749819 10.1396
lowerneck -17.1773 -3.49897 -5.50032
upperneck -5.45019 -3.66139 -9.19181
head 1.07058 -2.02543 -2.26234
rclavicle -1.27222e-014 -5.725e-014
rhumerus -10.2652 -12.167 -57.0521
rradius 21.9235
rwrist -10.2384
rhand -8.67453 13.8352
rfingers 7.12502
rthumb 17.2597 -15.4183
lclavicle -1.27222e-014 -5.725e-014
lhumerus -35.6199 -8.06597 99.5949
lradius 50.2413
lwrist 0.0823123
lhand 0.149849 41.9465
lfingers 7.12502
lthumb 25.7339 70.2265
rfemur -22.6908 -0.99454 20.1798
rtibia 30.1442
rfoot -17.44 -10.439
rtoes -0.335702
lfemur -20.9332 -2.04154 -19.8057
ltibia 26.6364
lfoot -17.1008 2.6768
ltoes -1.84648
318
root 0.92095 17.6081 -36.7986 10.1734 2.70409 0.752829
lowerback 14.4388 0.473398 7.28292
upperback 8.55206 1.64332 13.4058
thorax 0.90617 0.743458 10.2141
lowerneck -17.2006 -3.41802 -5.73355
upperneck -5.31987 -3.4919 -9.32918
head 1.12359 -1.94659 -2.26102
rclavicle -1.90833e-014 -8.90555e-014
rhumerus -10.3311 -12.8311 -57.1716
rradius 21.4473
rwrist -9.20092
rhand -8.98966 14.5351
rfingers 7.12502
rthumb 16.9564 -14.7447
lclavicle -1.90833e-014 -8.90555e-014
lhumerus -35.5434 -8.14786 99.5882
lradius 49.9645
lwrist 0.184057
lhand 0.101334 42.6391
lfingers 7.12502
lthumb 25.6874 70.9259
rfemur -22.5091 -0.920618 20.2326
rtibia 30.1875
rfoot -17.5404 -10.4311
rtoes -0.552958
lfemur -20.779 -1.92858 -19.7862
ltibia 26.747
lfoot -17.1915 2.7864
ltoes -2.8644
319
root 0.911038 17.602 -36.7896 10.0966 2.79585 0.706268
lowerback 14.3572 0.45695 7.2059
upperback 8.50468 1.6073 13.3402
thorax 0.900438 0.725708 10.1855
lowerneck -17.0893 -3.3483 -5.81476
upperneck -5.29919 -3.38999 -9.47673
head 1.1133 -1.89513 -2.28763
rclavicle -3.18055e-015 -2.54444e-014
rhumerus -10.6567 -13.015 -57.3734
rradius 21.6107
rwrist -8.6976
rhand -9.85836 14.0872
rfingers 7.12502
rthumb 16.12 -15.2624
lclavicle -3.18055e-015 -2.54444e-014
lhumerus -35.5301 -8.47142 99.5237
lradius 49.6561
lwrist 0.261293
lhand 0.111204 42.3464
lfingers 7.12502
lthumb 25.6969 70.6318
rfemur -22.4148 -1.06023 20.3419
rtibia 30.249
rfoot -17.6266 -10.3625
rtoes -0.794263
lfemur -20.7451 -1.82567 -19.7292
ltibia 26.8669
lfoot -17.2755 2.72706
ltoes -3.65115
320
root 0.901836 17.5965 -36.775 10.0338 2.67957 0.707443
lowerback 14.273 0.62839 6.96747
upperback 8.46305 1.79945 13.3368
thorax 0.865746 0.816073 10.2899
lowerneck -17.0429 -3.38277 -5.92702
upperneck -5.20603 -3.40762 -9.72831
head 1.13473 -1.91171 -2.35496
rclavicle -6.36111e-015 -7.63333e-014
rhumerus -11.0385 -14.131 -57.1694
rradius 21.4917
rwrist -8.43046
rhand -9.50921 14.5508
rfingers 7.12502
rthumb 16.4562 -14.7713
lclavicle -6.36111e-015 -7.63333e-014
lhumerus -35.4912 -8.75866 99.6577
lradius 49.4003
lwrist 0.00437204
lhand -0.0876588 41.937
lfingers 7.12502
lthumb 25.5064 70.2498
rfemur -22.3322 -1.15975 20.3867
rtibia 30.2881
rfoot -17.6542 -10.1523
rtoes -0.992884
lfemur -20.6554 -1.78406 -19.7213
ltibia 26.9691
lfoot -17.3557 2.88345
ltoes -4.07059
321
root 0.889356 17.5925 -36.763 9.93249 2.68611 0.679605
lowerback 14.2766 0.609018 6.85673
upperback 8.38311 1.77296 13.2621
thorax 0.776406 0.802372 10.2677
lowerneck -16.9129 -3.31705 -6.16135
upperneck -5.13271 -3.27957 -9.75093
head 1.1425 -1.84378 -2.31172
rclavicle 3.18055e-015 -4.13472e-014
rhumerus -11.7005 -13.7987 -57.3617
rradius 22.0274
rwrist -9.44071
rhand -10.046 14.6182
rfingers 7.12502
rthumb 15.9394 -14.746
lclavicle 3.18055e-015 -4.13472e-014
lhumerus -35.5685 -8.89263 99.5576
lradius 49.1961
lwrist -0.0227185
lhand 0.325072 41.8929
lfingers 7.12502
lthumb 25.9017 70.1486
rfemur -22.2016 -1.15776 20.4641
rtibia 30.335
rfoot -17.7214 -10.1288
rtoes -0.977888
lfemur -20.5522 -1.75488 -19.6576
ltibia 27.079
lfoot -17.4505 2.86766
ltoes -3.9559
